<svg width="34" height="33" fill="none" xmlns="http://www.w3.org/2000/svg"><path d="M2 3V2l2 1H2z" fill="url(#paint0_linear)"/><path d="M30 29l-1-1v1h1z" fill="url(#paint1_linear)"/><g filter="url(#filter0_d)"><path d="M2 2h15.273L30 14.273V29L2 2z" fill="url(#paint2_linear)"/></g><g filter="url(#filter1_dd)"><path d="M15.749 12.333l-.824-.795 1.753-1.688-1.22-1.178-1.753 1.689-.826-.798 4.096-3.946.826.798-1.657 1.596 1.22 1.177 1.657-1.596.823.795-4.095 3.946zm5.226 1.805c-.55.53-1.106.815-1.67.857-.563.043-1.075-.158-1.535-.603-.46-.443-.67-.936-.633-1.478.04-.544.329-1.08.867-1.605l.7-.675c.563-.542 1.132-.839 1.708-.891.577-.054 1.097.142 1.56.589.456.44.659.936.61 1.489-.047.551-.35 1.099-.906 1.643l-.7.674zm-.143-1.461c.37-.356.592-.671.667-.946.075-.275.002-.519-.219-.732-.219-.212-.468-.284-.748-.218-.277.065-.595.267-.953.605l-.729.702c-.358.345-.569.651-.633.919-.062.265.019.506.242.72.215.209.458.284.728.226.272-.06.583-.256.934-.59l.711-.686zm4.872 2.695l-1.012-.977-3.406 3.282-.83-.8 3.407-3.282-.995-.96.69-.665 2.835 2.738-.689.664z" fill="url(#paint3_linear)"/></g><defs><linearGradient id="paint0_linear" x1="2.067" y1="2.675" x2="2.684" y2="2.216" gradientUnits="userSpaceOnUse"><stop stop-color="#FFC700"/><stop offset="1" stop-color="red"/></linearGradient><linearGradient id="paint1_linear" x1="29.218" y1="28.857" x2="29.835" y2="28.398" gradientUnits="userSpaceOnUse"><stop stop-color="#FFC700"/><stop offset="1" stop-color="red"/></linearGradient><linearGradient id="paint2_linear" x1="4.211" y1="24.289" x2="24.572" y2="9.142" gradientUnits="userSpaceOnUse"><stop stop-color="red"/><stop offset="1" stop-color="#FFC700"/></linearGradient><linearGradient id="paint3_linear" x1="12.46" y1="8.639" x2="26.15" y2="8.115" gradientUnits="userSpaceOnUse"><stop stop-color="#831000"/><stop offset=".5" stop-color="red"/><stop offset="1" stop-color="#A00"/></linearGradient><filter id="filter0_d" x="0" y="0" width="34" height="33" filterUnits="userSpaceOnUse" color-interpolation-filters="sRGB"><feFlood flood-opacity="0" result="BackgroundImageFix"/><feColorMatrix in="SourceAlpha" values="0 0 0 0 0 0 0 0 0 0 0 0 0 0 0 0 0 0 127 0"/><feOffset dx="1" dy="1"/><feGaussianBlur stdDeviation="1.5"/><feColorMatrix values="0 0 0 0 0.0705882 0 0 0 0 0.101961 0 0 0 0 0.133333 0 0 0 1 0"/><feBlend in2="BackgroundImageFix" result="effect1_dropShadow"/><feBlend in="SourceGraphic" in2="effect1_dropShadow" result="shape"/></filter><filter id="filter1_dd" x="9.879" y="2.617" width="21.514" height="20.06" filterUnits="userSpaceOnUse" color-interpolation-filters="sRGB"><feFlood flood-opacity="0" result="BackgroundImageFix"/><feColorMatrix in="SourceAlpha" values="0 0 0 0 0 0 0 0 0 0 0 0 0 0 0 0 0 0 127 0"/><feOffset dx="1" dy="1"/><feGaussianBlur stdDeviation=".5"/><feColorMatrix values="0 0 0 0 1 0 0 0 0 0.815686 0 0 0 0 0 0 0 0 1 0"/><feBlend mode="darken" in2="BackgroundImageFix" result="effect1_dropShadow"/><feColorMatrix in="SourceAlpha" values="0 0 0 0 0 0 0 0 0 0 0 0 0 0 0 0 0 0 127 0"/><feOffset dx="1" dy="1"/><feGaussianBlur stdDeviation="2"/><feColorMatrix values="0 0 0 0 0 0 0 0 0 0 0 0 0 0 0 0 0 0 0.4 0"/><feBlend in2="effect1_dropShadow" result="effect2_dropShadow"/><feBlend in="SourceGraphic" in2="effect2_dropShadow" result="shape"/></filter></defs></svg>