<svg width="89" height="106" xmlns="http://www.w3.org/2000/svg"><g fill="none" fill-rule="evenodd"><path stroke="#A9AEAE" stroke-width="6" d="M7.139 71.224l37.693 30.772 38.139-30.772 2.826-50.293-40.89-17.494L3.867 20.93z"/><path d="M49.563 59h-9.126L39 27h12l-1.437 32zM39 69.5c0-1.606.572-2.924 1.717-3.954C41.86 64.516 43.289 64 45 64c1.711 0 3.139.515 4.283 1.546C50.428 66.576 51 67.894 51 69.5c0 1.606-.572 2.924-1.717 3.954C48.14 74.484 46.711 75 45 75c-1.711 0-3.139-.515-4.283-1.546C39.572 72.424 39 71.106 39 69.5z" fill="#A9AEAE"/></g></svg>