<svg width="88" height="106" xmlns="http://www.w3.org/2000/svg" xmlns:xlink="http://www.w3.org/1999/xlink"><use xlink:href="#path0_fill" fill="#CED6D5" fill-opacity=".8"/><defs><path id="path0_fill" fill-rule="evenodd" d="M84.727 72.194L44.089 106l-.089-.074v-.23l-.09.073L3.274 71.964S.931 30.204 0 17.76L43.835 0 44 .065v.23l.165-.064L88 17.992c-.931 12.442-3.273 54.202-3.273 54.202zm-3.711-52.126c-.005-.059-1.164-.461-1.164-.461L44 5.345v-.231L8.148 19.376s-1.16.403-1.164.461l-1.538.692c.725 7.329 2.976 48.694 2.976 48.694L43.985 99.06l.015-.013v.23l.016.013 35.563-29.836s2.25-41.366 2.975-48.694l-1.538-.692zM53.205 49.163l-1.07-5.443H33.373l-4.294-16.348h19.905l.87 4.072h15.252l-3.008 8.819 7.347 8.9h-16.24zM38.487 77.005l-2.185.591a1.18 1.18 0 01-.886-.148 1.163 1.163 0 01-.518-.729L20.881 26.734a1.174 1.174 0 01.087-.893c.146-.274.396-.481.694-.575l2.185-.592a1.178 1.178 0 011.219.461c.088.125.151.266.185.416l14.017 49.985c.09.297.059.618-.087.892a1.191 1.191 0 01-.694.576v.001z"/></defs></svg>