<svg width="26" height="26" fill="none" xmlns="http://www.w3.org/2000/svg"><path fill-rule="evenodd" clip-rule="evenodd" d="M23.779 14.08a10.834 10.834 0 01-9.696 9.692v2.222h-2.166v-2.222A10.834 10.834 0 012.22 14.08H0v-2.166h2.221a10.834 10.834 0 019.696-9.692V0h2.166v2.222a10.834 10.834 0 019.696 9.692H26v2.166h-2.221zm-11.862 7.48v-2.163a6.49 6.49 0 01-5.308-5.317h-2.2c.489 3.915 3.594 6.988 7.508 7.48zm0-17.127c-3.914.493-7.02 3.566-7.509 7.48H6.61a6.49 6.49 0 015.308-5.316V4.433zm0 6.398V8.818a4.328 4.328 0 00-3.097 3.096h2.013v2.166H8.82a4.328 4.328 0 003.097 3.096v-2.013h2.166v2.013a4.328 4.328 0 003.097-3.096h-2.013v-2.166h2.013a4.328 4.328 0 00-3.097-3.096v2.013h-2.166zm2.166-6.398v2.164a6.49 6.49 0 015.308 5.317h2.2c-.489-3.915-3.594-6.988-7.508-7.48zm5.308 9.647a6.49 6.49 0 01-5.308 5.317v2.164c3.914-.493 7.02-3.566 7.509-7.481H19.39z" fill="#9CC3D4"/></svg>