<svg width="16" height="12" fill="none" xmlns="http://www.w3.org/2000/svg"><path fill-rule="evenodd" clip-rule="evenodd" d="M15.7 6.413l-3.442 4.637c-.166.223-.434.223-.599 0l-.755-1.017 2.687-3.62a.718.718 0 000-.806l-.334-.45L14.26 3.67l1.44 1.937a.718.718 0 010 .806zm-4.796-4.425L11.659.97c.165-.222.433-.222.599 0L13.7 2.913 12.695 4.4l-1.791-2.413zm-4.512 8.046L5.195 8.439l4.41-6.533 1.197 1.595-4.41 6.533zM3.715 6.469a.81.81 0 010-.919L7.683.266c.19-.253.5-.253.69 0l.753 1.003-4.41 6.533-1-1.333zm-1.497-.223l2.237 3.027-.791 1.07c-.146.197-.382.197-.527 0L.109 6.246a.637.637 0 010-.713l3.028-4.097c.145-.197.381-.197.527 0l.79 1.07-2.236 3.027a.637.637 0 000 .713zm10.123-.696a.81.81 0 010 .92l-3.968 5.283c-.19.254-.5.254-.69 0l-.812-1.082 4.41-6.533 1.06 1.412z" fill="#fff" fill-opacity=".8"/></svg>