<svg xmlns="http://www.w3.org/2000/svg" viewBox="0 0 14 10"><path fill="none" d="M14 10V0v10zM0 7V0v10-1.1z"/><path fill="#FFF" d="M0 3h.1v1H0zm.1 3v1h1.8L.1 8.8V10h.2l3.6-2.8h1L1.3 10h1l2.6-2v2H6V6zM0 8.9V10h.1V8.8zm.1-7.7V.1L0 0v1.1zM4 3L.1.1v1.1L1.9 3H.1v1H6V0H4.9v2L2.3 0H1l3.9 3zM0 6h.1v1H0zm9.9-3h-1l3.9-3h-1.2L9 2V0H8v4h5.9v2H8v4h1V8l2.6 2h1.1L9.1 7.2h1l3.6 2.8h.3V0h-.2L9.9 3zm4 6l-2-2h2v2zm0-6h-2l2-2v2z"/><path fill="#C9161A" d="M9.9 3l3.9-3h-.9l-4 3zm-.8 4.2l3.6 2.8h1L10 7.2zM4 3h.9L1 0H.1v.1zM.1 0H0l.1.1zm3.8 7.2L.3 10h1l3.6-2.8z"/><path fill="#243879" d="M2.3 10h2.6V8zM9 10h2.6L9 8zm2.6-10H9v2zM4.9 0H2.3l2.6 2zM.1 1.2L0 1.1V3h.1zM1.9 3L.1 1.2V3zM0 8.9l.1-.1V7H0zM1.9 7H.1v1.8zm12-4V1l-2 2zm0 6V7h-2z"/><path fill="#C9161A" d="M0 4h.1v2H0zm13.9 2V4H8V0H6v4H.1v2H6v4h2V6z"/></svg>