<svg width="11" height="11" xmlns="http://www.w3.org/2000/svg" xmlns:xlink="http://www.w3.org/1999/xlink"><g transform="translate(-32827 -9881)"><mask id="a"><use xlink:href="#path0_fill" fill="#fff" transform="translate(32827 9881)"/></mask><g mask="url(#a)"><use xlink:href="#path1_stroke_2x" transform="translate(32827 9881)" fill="#FFF"/></g></g><use xlink:href="#path2_stroke" transform="translate(5.5 2)" fill="#FFF"/><defs><path id="path0_fill" d="M11 5.5a5.5 5.5 0 11-11 0 5.5 5.5 0 0111 0z"/><path id="path1_stroke_2x" d="M10 5.5A4.5 4.5 0 015.5 10v2A6.5 6.5 0 0012 5.5h-2zM5.5 10A4.5 4.5 0 011 5.5h-2A6.5 6.5 0 005.5 12v-2zM1 5.5A4.5 4.5 0 015.5 1v-2A6.5 6.5 0 00-1 5.5h2zM5.5 1A4.5 4.5 0 0110 5.5h2A6.5 6.5 0 005.5-1v2z"/><path id="path2_stroke" d="M0 3.815h-.5v.233l.178.15L0 3.815zM-.5 0v3.815h1V0h-1zm.178 4.198l2 1.684.644-.764-2-1.685-.644.765z"/></defs></svg>