<svg width="30" height="31" fill="none" xmlns="http://www.w3.org/2000/svg"><path d="M0 .14h30v30H0z"/><path d="M0 .14h30v30H0z"/><path fill-rule="evenodd" clip-rule="evenodd" d="M15 27.74c6.959 0 12.6-5.642 12.6-12.6 0-6.96-5.641-12.6-12.6-12.6S2.4 8.18 2.4 15.14c0 6.958 5.641 12.6 12.6 12.6zm0 2.4c8.284 0 15-6.716 15-15 0-8.285-6.716-15-15-15-8.284 0-15 6.715-15 15 0 8.284 6.716 15 15 15z" fill="#EC5858"/><path fill-rule="evenodd" clip-rule="evenodd" d="M24 11l-9.87 10-6.63-6.5 2-2 4.5 4L21.5 9l2.5 2z" fill="#EC5858"/></svg>