<svg width="17" height="18" fill="none" xmlns="http://www.w3.org/2000/svg"><path fill-rule="evenodd" clip-rule="evenodd" d="M7.438 13.484c2.928 0 5.437-2.494 5.437-5.742C12.875 4.494 10.365 2 7.438 2 4.509 2 2 4.494 2 7.742c0 3.248 2.51 5.742 5.438 5.742zm0 2c4.107 0 7.437-3.466 7.437-7.742S11.545 0 7.438 0C3.33 0 0 3.466 0 7.742s3.33 7.742 7.438 7.742z" fill="#869094"/><path d="M11.631 12.334a.953.953 0 011.386 0l3.29 3.424a1.05 1.05 0 010 1.443l-.076.078a.953.953 0 01-1.386 0l-3.289-3.424a1.05 1.05 0 010-1.442l.075-.079z" fill="#869094"/></svg>