<svg width="31" height="29" xmlns="http://www.w3.org/2000/svg" xmlns:xlink="http://www.w3.org/1999/xlink"><use xlink:href="#path0_fill" transform="translate(19.1 18.75)" fill="#CED6D5"/><use xlink:href="#path1_fill" transform="translate(19.6 .81)" fill="#CED6D5"/><use xlink:href="#path2_fill" transform="translate(23.6 10.58)" fill="#CED6D5"/><use xlink:href="#path3_fill" transform="translate(24.5 3.15)" fill="#CED6D5"/><use xlink:href="#path4_fill" transform="translate(3.1 3.12)" fill="#CED6D5"/><use xlink:href="#path5_fill" transform="translate(.6 18.75)" fill="#CED6D5"/><use xlink:href="#path6_fill" transform="translate(6.9 .81)" fill="#CED6D5"/><use xlink:href="#path7_fill" transform="translate(0 10.58)" fill="#CED6D5"/><use xlink:href="#path8_fill" transform="translate(4.8 22.89)" fill="#CED6D5"/><use xlink:href="#path9_fill" transform="translate(11.5 3.85)" fill="#CED6D5"/><defs><path id="path0_fill" d="M.496 3.28C2.88.456 6.937-.386 10.529.156l.744.12-.465.601C8.516 3.792 4.305 4.724.743 4.002L0 3.852l.496-.571z"/><path id="path1_fill" d="M.983.42C3.49 2.376 5.009 5.622 4.358 8.749l-.123.691-.589-.42C1.076 7.153-.658 3.726.24.63L.425 0l.558.42z"/><path id="path2_fill" d="M7.247.691C6.75 4.118 4.243 7.545.65 8.327l-.65.15.124-.661C.774 4.419 3.22 1.293 6.689.21L7.371 0l-.124.691z"/><path id="path3_fill" d="M2.65.661c1.332 2.976.93 6.584-1.115 9.169l-.495.6-.31-.72C-.51 6.734-.2 3.126 1.876.57L2.34 0l.31.661z"/><path id="path4_fill" d="M1.546.601C3.621 3.186 3.931 6.764 2.692 9.74l-.31.721-.495-.601C-.157 7.275-.559 3.667.772.69l.31-.69.464.601z"/><path id="path5_fill" d="M10.53 4.005C6.967 4.726 2.755 3.795.464.879L0 .277l.743-.12c3.593-.54 7.65.27 10.034 3.126l.465.572-.713.15z"/><path id="path6_fill" d="M4.26.631c.928 3.096-.806 6.523-3.407 8.387l-.589.42-.124-.69C-.48 5.62 1.007 2.375 3.516.42L4.073 0l.186.631z"/><path id="path7_fill" d="M.681.21C4.15 1.263 6.596 4.39 7.247 7.816l.124.661-.65-.15C3.096 7.545.587 4.118.092.69L0 0l.681.21z"/><path id="path8_fill" d="M13.193 2.298c.588.602 1.177 1.173 1.889 1.654l.495.3-.433.391c-.186.15-.34.3-.527.481l-.217.18-.278-.12c-1.672-.691-2.137-2.435-3.438-3.246-1.3.811-1.765 2.555-3.437 3.246l-.279.12-.217-.21c-.186-.15-.34-.3-.526-.481l-.434-.39.496-.301c.712-.451 1.3-1.052 1.889-1.654-.805.391-1.58.842-2.509.992-1.61.27-3.375.361-4.924-.3L0 2.629l.681-.45C2.2 1.155 3.841.193 5.761.043c1.486-.09 3.003-.03 4.49.27h.062c.278.09.557.09.836 0h.062c1.455-.33 2.973-.36 4.49-.27 1.89.15 3.53 1.112 5.08 2.134l.68.451-.743.33c-1.548.662-3.282.572-4.924.301-.99-.12-1.796-.57-2.601-.962z"/><path id="path9_fill" d="M7.273 15H.914v-1.04l3.242-4.296c.49-.661.828-1.203 1.016-1.625a3.25 3.25 0 00.289-1.351c0-.605-.14-1.094-.422-1.47a1.322 1.322 0 00-1.11-.562c-.577 0-1.025.2-1.343.602-.313.396-.469.969-.469 1.719H.734c0-1.047.287-1.894.86-2.54.573-.645 1.351-.968 2.336-.968.906 0 1.62.278 2.14.836.521.552.782 1.289.782 2.21 0 1.126-.586 2.456-1.758 3.993L2.562 13.82h4.711V15z"/></defs></svg>