<svg width="18" height="21" xmlns="http://www.w3.org/2000/svg" xmlns:xlink="http://www.w3.org/1999/xlink"><defs><filter x="-29.8%" y="-28.7%" width="159.5%" height="151.6%" filterUnits="objectBoundingBox" id="a"><feOffset in="SourceAlpha" result="shadowOffsetOuter1"/><feGaussianBlur stdDeviation="1" in="shadowOffsetOuter1" result="shadowBlurOuter1"/><feColorMatrix values="0 0 0 0 0 0 0 0 0 0 0 0 0 0 0 0 0 0 1 0" in="shadowBlurOuter1" result="shadowMatrixOuter1"/><feMerge><feMergeNode in="shadowMatrixOuter1"/><feMergeNode in="SourceGraphic"/></feMerge></filter><filter x="-1.8%" y="-5%" width="103.7%" height="104.1%" filterUnits="objectBoundingBox" id="b"><feOffset dy="-1" in="SourceAlpha" result="shadowOffsetOuter1"/><feColorMatrix values="0 0 0 0 0 0 0 0 0 0 0 0 0 0 0 0 0 0 0.198963995 0" in="shadowOffsetOuter1"/></filter><linearGradient x1="50%" y1="93.794%" x2="50%" y2="51.291%" id="d"><stop stop-color="#8B8B8B" offset="0%"/><stop stop-color="#626262" offset="9.912%"/><stop stop-color="#D9D9D9" offset="97.053%"/><stop stop-color="#FCFCFC" offset="100%"/></linearGradient><path d="M10.483 5.099l-6.41 8.821-1.332-1.741L9.15 3.357l1.333 1.742zm1.148 1.5l1.065 1.391a1 1 0 010 1.216l-5.321 6.952a1 1 0 01-1.588 0l-.566-.738 6.41-8.822zM8.002 1.856l-6.41 8.822L.466 9.206a1 1 0 010-1.216l5.322-6.952a1 1 0 011.588 0l.627.82z" id="c"/></defs><g filter="url(#a)" transform="translate(2.42 2.563)" fill="none"><use fill="#000" filter="url(#b)" xlink:href="#c"/><use fill="url(#d)" xlink:href="#c"/></g></svg>