<svg width="40" height="40" xmlns="http://www.w3.org/2000/svg"><g fill="#7289DA"><path d="M15.972 17C14.87 17 14 17.9 14 19s.89 2 1.972 2c1.102 0 1.972-.9 1.972-2 .02-1.1-.87-2-1.972-2zm7.056 0c-1.102 0-1.972.9-1.972 2s.89 2 1.972 2C24.13 21 25 20.1 25 19s-.87-2-1.972-2z"/><path d="M32.134 1H6.866C4.735 1 3 2.748 3 4.914v25.688c0 2.166 1.735 3.914 3.866 3.914H28.25l-1-3.515 2.414 2.261 2.282 2.128L36 39V4.914C36 2.748 34.265 1 32.134 1zm-7.279 24.814s-.678-.817-1.244-1.539c2.47-.703 3.413-2.261 3.413-2.261a10.76 10.76 0 01-2.169 1.121 12.33 12.33 0 01-2.734.817c-1.81.342-3.47.247-4.884-.019a15.74 15.74 0 01-2.772-.817 10.96 10.96 0 01-1.376-.646c-.057-.038-.114-.057-.17-.095a.26.26 0 01-.076-.057c-.339-.19-.528-.323-.528-.323s.906 1.52 3.3 2.242c-.565.722-1.263 1.577-1.263 1.577-4.167-.133-5.751-2.888-5.751-2.888 0-6.118 2.715-11.077 2.715-11.077 2.715-2.052 5.299-1.995 5.299-1.995l.188.228c-3.394.988-4.959 2.489-4.959 2.489s.415-.228 1.113-.551c2.017-.893 3.62-1.14 4.28-1.197.113-.019.208-.038.32-.038a15.844 15.844 0 013.81-.038 15.29 15.29 0 015.676 1.824s-1.49-1.425-4.696-2.413l.264-.304s2.584-.057 5.3 1.995c0 0 2.715 4.959 2.715 11.077 0 0-1.603 2.755-5.77 2.888z"/></g></svg>