<svg width="15" height="12" fill="none" xmlns="http://www.w3.org/2000/svg"><path fill-rule="evenodd" clip-rule="evenodd" d="M13.278 9.36C11.862 11.287 9.344 12 9.344 12c-.667-.233-2.54-1.077-3.688-2.64-.109-.148-.21-.3-.306-.455l1.512-.632-.223 1.087 1.23-.72v1.2L9.344 8.4v2.617c.375-.12 2.167-.75 3.228-2.195 1.502-2.046 1.444-5.04 1.444-5.04s-.719-.28-1.032-.806c-.373-.628-.412-1.411-.412-1.411s-.631-.54-2.89-.599V.96h-.338V3.6L7.623 1.68l.246 1.92-1.875-1.143c-.012.038-.028.076-.042.115l.43 1.47-2.178-.81c.284-.15.72-.43.96-.832.445-.748.492-1.68.492-1.68S6.407.078 9.098.007V0h.738v.007c2.691.071 3.442.713 3.442.713s.047.932.492 1.68c.373.627 1.23.96 1.23.96s.068 3.564-1.722 6zM6.885 4.8h.492s4.18.232 4.18 1.455c0 1.158-4.111 1.42-4.174 1.425v.008H0V4.807h6.885V4.8zm-.078.72h-.414v1.44h.414s3.52-.129 3.52-.712c0-.612-3.52-.728-3.52-.728z" fill="#fff" fill-opacity=".8"/></svg>