<svg xmlns="http://www.w3.org/2000/svg" xmlns:xlink="http://www.w3.org/1999/xlink" viewBox="0 0 14 10"><defs><path id="a" d="M.1 0h14v10H.1z"/></defs><use xlink:href="#a" overflow="visible" fill="#FFF"/><clipPath id="b"><use xlink:href="#a" overflow="visible"/></clipPath><path clip-path="url(#b)" fill="#FFF" d="M0 0h14v9.8H0z"/><path fill="#010202" d="M9.8 1.7l.6.9-.3.3-.6-1zm.7 1.1l.6.9-.3.3-.6-1zm-.2-1.5l1.3 2.1-.3.2-1.3-2zm.5-.3l.6.9-.3.3-.6-1zm.7 1.1l.6 1-.3.2-.6-1zM3.5 6l1.3 2.1-.3.2-1.4-2zm-.5.4l.6.9-.4.2-.6-.9zm.7 1.1l.6.9-.3.3-.7-1zm-1.2-.8l1.3 2.1-.3.2-1.4-2.1zm.6-3l1.4-2 .3.2L3.5 4zm-.5-.3L4 1.3l.3.3-1.3 2zm-.5-.3L3.5 1l.3.2-1.3 2.1zm7.4 5l.6-1 .3.3-.6.9zm.7-1.1l.6-1 .3.3-.6.9zM10 8.4l.6-.9.3.2-.6 1zm.7-1.1l.6-.9.3.2-.6.9zm-.2 1.5l.6-1 .3.3-.6.9zm.7-1.1l.6-1 .3.2-.6 1z"/><path fill="#B6163B" d="M5.1 3.6s0 .1 0 0c0 .1 0 0 0 0m3.4-.7c-1.1-.7-2.6-.4-3.4.7-.3.6-.2 1.4.4 1.7.5.4 1.3.3 1.6-.3.4-.6 1.1-.7 1.7-.3.5.3.7 1.1.3 1.7.8-1.2.5-2.7-.6-3.5"/><path fill="#233772" d="M5.1 3.6c-.3.6-.2 1.4.4 1.7.5.4 1.3.3 1.6-.3.4-.6 1.1-.7 1.7-.3.5.3.7 1.1.3 1.7-.7 1.1-2.2 1.4-3.3.7-1.1-.8-1.4-2.3-.7-3.5"/></svg>