<svg width="50" height="44" xmlns="http://www.w3.org/2000/svg" xmlns:xlink="http://www.w3.org/1999/xlink"><g fill="#F5AF00"><use xlink:href="#path0_fill"/><use xlink:href="#path1_fill"/><use xlink:href="#path2_fill"/><use xlink:href="#path3_fill"/><use xlink:href="#path4_fill"/><use xlink:href="#path5_fill"/><use xlink:href="#path6_fill"/><use xlink:href="#path7_fill"/><use xlink:href="#path8_fill"/><use xlink:href="#path9_fill"/></g><defs><path id="path0_fill" d="M31.618 34.098c3.846-4.54 10.39-5.892 16.184-5.022l1.2.193-.75.966c-3.697 4.684-10.49 6.182-16.235 5.023l-1.199-.242.8-.918z"/><path id="path1_fill" d="M33.119.676c4.046 3.14 6.493 8.356 5.444 13.378l-.2 1.111-.949-.676c-4.146-2.994-6.943-8.5-5.494-13.475L32.22 0l.899.676z"/><path id="path2_fill" d="M49.8 16.806c-.799 5.506-4.845 11.012-10.64 12.268l-1.049.241.2-1.063c1.05-5.457 4.995-10.48 10.59-12.219l1.1-.338-.2 1.111z"/><path id="path3_fill" d="M43.76 4.83c2.149 4.78 1.5 10.576-1.797 14.73l-.8.966-.5-1.16c-1.997-4.78-1.498-10.577 1.849-14.682l.75-.917.499 1.062z"/><path id="path4_fill" d="M7.442 4.686c3.347 4.153 3.846 9.9 1.848 14.682l-.5 1.16-.799-.967c-3.297-4.153-3.946-9.949-1.798-14.73l.5-1.111.749.966z"/><path id="path5_fill" d="M17.931 35.256c-5.744 1.159-12.538-.338-16.234-5.023l-.75-.966 1.2-.193c5.794-.87 12.338.434 16.184 5.023l.75.917-1.15.242z"/><path id="path6_fill" d="M18.032 1.014c1.499 4.975-1.299 10.48-5.495 13.475l-.949.676-.2-1.11c-.999-5.023 1.4-10.24 5.445-13.379l.9-.676.3 1.014z"/><path id="path7_fill" d="M1.099 16.033c5.595 1.69 9.541 6.714 10.59 12.22l.2 1.062-1.05-.241C4.996 27.818.95 22.312.15 16.806L0 15.696l1.099.337z"/><path id="path8_fill" d="M29.024 39.17c.95.966 1.898 1.884 3.047 2.657l.8.483-.7.627c-.3.242-.55.483-.849.773l-.35.29-.45-.193c-2.697-1.111-3.446-3.912-5.544-5.216-2.098 1.304-2.847 4.105-5.545 5.216l-.45.193-.35-.338a12.373 12.373 0 01-.848-.773l-.7-.628.8-.483c1.148-.724 2.098-1.69 3.047-2.656-1.299.628-2.548 1.352-4.046 1.594-2.598.434-5.445.58-7.943-.483l-1.199-.531 1.1-.725c2.447-1.642 5.094-3.188 8.191-3.429 2.398-.145 4.846-.048 7.244.435h.1c.45.145.899.145 1.348 0h.1c2.348-.532 4.796-.58 7.243-.435 3.047.241 5.695 1.787 8.193 3.43l1.099.724-1.2.53c-2.497 1.063-5.294.918-7.942.484-1.598-.193-2.897-.918-4.196-1.546z"/><path id="path9_fill" d="M26.012 29h-2.774V18.14l-2.705 1.046V16.88l5.186-2.12h.293V29z"/></defs></svg>