<svg width="27" height="31" fill="none" xmlns="http://www.w3.org/2000/svg"><mask id="a" maskUnits="userSpaceOnUse" x="3" y="3" width="21" height="24"><path fill-rule="evenodd" clip-rule="evenodd" d="M9.463 23.316L.773 16.11l-.044-.842A2088.08 2088.08 0 00.447 9.98C.295 7.178.127 4.646 0 2.83 2.494 1.103 5.818 0 9.543 0c3.723 0 7.045 1.1 9.539 2.825-.15 1.982-.34 4.612-.506 7.46l-.226 3.95-.065 1.124-.039.72-8.783 7.237z" transform="translate(3.97 3.348)" fill="#fff"/></mask><g mask="url(#a)" fill-rule="evenodd" clip-rule="evenodd" fill="#9BC3D4"><path d="M21.316 21.812l.32.045c.509.073 1.325.189 1.534.189 2.93 0 2.555-6.337 2.555-6.342 0-1.148-.965-1.946-2.137-2.267-.541.711-1.344 1.25-2.248 1.25-.912 0-1.717-.543-2.26-1.261-.656.173-1.24.502-1.642.95-.01.023-.07.11-.133.198 2.011.645 4.03 2.281 4.03 4.96l-.019 2.278zm.02-2.278c.002-.004 0-.008 0-.013v.013zm-13.549-1.99c.54-.716 1.361-1.24 2.283-1.54.063-.02.137-.043.2-.06.058.074.12.146.183.217.79.887 1.834 1.504 2.985 1.504 1.248 0 2.37-.728 3.177-1.74 1.229.335 2.319 1.055 2.86 2.096.23.445.36.946.36 1.5l-.067 8.005-12.76.29.117-8.295c0-.18.014-.355.041-.525.055-.35.164-.676.32-.975l.088-.157a3.49 3.49 0 01.213-.32zm5.693-1.853c-1.355 0-2.455-1.864-2.455-3.364v-1.682c0-1.501 1.1-2.718 2.455-2.718 1.356 0 2.456 1.217 2.456 2.718v1.682c0 1.5-1.1 3.364-2.456 3.364zm6.32-4.459c0 .793.655 1.779 1.462 1.779.804 0 1.457-.986 1.457-1.779v-.89c0-.793-.653-1.437-1.457-1.437a1.45 1.45 0 00-1.461 1.438v.89z"/><path d="M9.611 14.567a2.109 2.109 0 01-.127-.191c-.402-.448-.986-.777-1.642-.95-.543.718-1.348 1.261-2.258 1.261-.906 0-1.707-.539-2.25-1.25-1.172.32-2.137 1.119-2.137 2.267 0 .005-.375 6.342 2.555 6.342.207 0 1.016-.115 1.523-.188l.33-.046-.02-2.278c0-2.678 2.015-4.322 4.026-4.967zm-4.025 4.967c-.002-.004 0-.008 0-.013v.013zm1.535-8.302c0 .793-.654 1.779-1.459 1.779-.807 0-1.459-.986-1.459-1.779v-.89c0-.793.652-1.437 1.46-1.437.804 0 1.458.644 1.458 1.438v.89z"/></g><path fill-rule="evenodd" clip-rule="evenodd" d="M25.463 21.08s.748-12.959 1.053-16.433C23.289 1.79 18.659 0 13.515 0c-5.143 0-9.773 1.79-13 4.646.23 2.597.977 16.456.977 16.456L13.429 31l12.034-9.92zm-12.032 8.18l10.734-8.847a1931.447 1931.447 0 01.38-6.662c.198-3.393.428-6.478.585-8.518-2.94-2.379-7.039-3.884-11.615-3.884-4.577 0-8.677 1.505-11.616 3.885.13 1.798.337 4.802.522 8.204a2740.271 2740.271 0 01.37 6.965l.002.035L13.43 29.26z" fill="#9BC3D4"/></svg>