<svg width="31" height="27" xmlns="http://www.w3.org/2000/svg" xmlns:xlink="http://www.w3.org/1999/xlink"><use xlink:href="#path0_fill" fill="#54ABEE"/><defs><path id="path0_fill" fill-rule="evenodd" d="M27.826 6.562c.013.286.018.575.018.86 0 8.798-6.397 18.939-18.094 18.939-3.594 0-6.935-1.102-9.75-2.992a12.28 12.28 0 001.516.094c2.982 0 5.724-1.065 7.899-2.848-2.782-.054-5.132-1.976-5.941-4.62a6.22 6.22 0 002.873-.115c-2.91-.614-5.102-3.302-5.102-6.529v-.083c.858.5 1.84.799 2.881.834-1.707-1.195-2.83-3.23-2.83-5.541a6.85 6.85 0 01.862-3.346C5.294 5.243 9.982 7.89 15.268 8.17a7.019 7.019 0 01-.164-1.518C15.104 2.978 17.95 0 21.462 0c1.83 0 3.483.806 4.644 2.1A12.47 12.47 0 0030.144.485a6.635 6.635 0 01-2.797 3.681A12.284 12.284 0 0031 3.12a13.19 13.19 0 01-3.174 3.443v-.001z"/></defs></svg>