<svg width="21" height="23" fill="none" xmlns="http://www.w3.org/2000/svg"><path fill-rule="evenodd" clip-rule="evenodd" d="M20.212 3.448c-.237 2.577-.818 12.192-.818 12.192L10.038 23l-9.28-7.344S.179 5.374 0 3.447C2.508 1.328 6.107 0 10.105 0c4 0 7.598 1.328 10.107 3.448zm-1.828 11.696l-8.344 6.564-8.27-6.545-.001-.026a1975.94 1975.94 0 00-.288-5.168 338.102 338.102 0 00-.406-6.087C3.36 2.117 6.547 1 10.105 1c3.558 0 6.745 1.117 9.03 2.882a328.057 328.057 0 00-.456 6.32 1546.573 1546.573 0 00-.295 4.942zM4.146 13.44c0 .007 5.922 4.561 5.922 4.561s5.998-4.53 5.998-4.561c0-1.532-1.326-2.592-2.93-3.008-.733.95-1.835 1.665-3.069 1.665-1.226 0-2.323-.706-3.056-1.649-1.574.428-2.865 1.48-2.865 2.992zM8.06 7.743c0 1.106.9 2.48 2.008 2.48s2.007-1.374 2.007-2.48V6.504A2.006 2.006 0 0010.068 4.5 2.006 2.006 0 008.06 6.504v1.239z" fill="#fff"/></svg>