<svg width="30" height="16" fill="none" xmlns="http://www.w3.org/2000/svg"><path d="M28.539 14.475C27.412 15.152 25.617 16 25.617 16h-.414l-7.325-7.468 5.394-5.5c.18.257.3.637.3 1.234v1.067h4.285c.516 0 1.072 1.066 1.072 1.066H30v5.027s-.334 2.372-1.461 3.05zM10.583 1.095c.046-.008.07-.028.131-.028h3.215S14.419 0 15 0h3.214s1.072.383 1.072 1.067c.948.018 1.388.196 1.703.501l-4.97 5.068-5.436-5.54zM6.98 15.85c-1.275-.533-5.471-2.49-5.471-5.187 0-3.179 1.46-2.287 1.46-2.287h4.384s.08-.763.73-.763h1.461s-.974-.466-.974-1.214V5.333H0V3.2h8.928l5.23 5.332-7.177 7.318zm14.503.15h-10.93l5.465-5.572L21.484 16z" fill="#9CC3D4"/></svg>