<svg width="21" height="21" fill="none" xmlns="http://www.w3.org/2000/svg"><path d="M17.635 10.06a1.247 1.247 0 00-.885-.34h-.417V7.375c0-1.497-.573-2.782-1.718-3.856-1.146-1.074-2.518-1.61-4.115-1.61-1.597 0-2.969.536-4.115 1.61C5.24 4.594 4.667 5.88 4.667 7.376v2.343H4.25c-.347 0-.642.114-.885.342a1.095 1.095 0 00-.365.83v7.028c0 .326.122.602.365.83.243.228.538.342.885.342h12.5c.347 0 .642-.114.885-.342.243-.227.365-.504.365-.83V10.89c0-.325-.122-.601-.365-.83zm-3.802-.34H7.167V7.375c0-.862.325-1.599.976-2.209.651-.61 1.437-.915 2.357-.915.92 0 1.706.305 2.357.915.65.61.976 1.347.976 2.209v2.343z" fill="#838B8D"/></svg>