<svg width="16" height="16" fill="none" xmlns="http://www.w3.org/2000/svg"><circle cx="8" cy="8" r="7.375" stroke="#9BC3D4" stroke-width="1.25"/><path d="M7.26 9.621c0-.56.068-1.007.205-1.34.136-.332.384-.659.745-.98.364-.324.607-.586.727-.787.12-.204.18-.418.18-.643 0-.677-.312-1.015-.937-1.015-.297 0-.535.092-.715.276-.177.18-.269.43-.277.751H5.445c.008-.765.255-1.364.74-1.796.488-.433 1.153-.65 1.995-.65.849 0 1.508.207 1.977.62.469.408.703.987.703 1.736 0 .34-.076.663-.228.968-.153.3-.42.635-.8 1.003l-.486.463a1.648 1.648 0 00-.523 1.028l-.024.366H7.26zm-.174 1.845c0-.268.09-.488.27-.66a.976.976 0 01.703-.265c.285 0 .517.088.698.264a.865.865 0 01.276.661c0 .265-.09.483-.27.655-.177.173-.411.259-.704.259-.292 0-.528-.086-.709-.259a.877.877 0 01-.264-.655z" fill="#9BC3D4"/></svg>