<svg width="24" height="23" xmlns="http://www.w3.org/2000/svg" xmlns:xlink="http://www.w3.org/1999/xlink"><defs><filter x="-8.4%" y="-60.5%" width="116.8%" height="180.7%" filterUnits="objectBoundingBox" id="y"><feOffset dy="-1" in="SourceAlpha" result="shadowOffsetOuter1"/><feColorMatrix values="0 0 0 0 0 0 0 0 0 0 0 0 0 0 0 0 0 0 0.198963995 0" in="shadowOffsetOuter1"/></filter><filter x="-8.4%" y="-60.5%" width="116.8%" height="180.7%" filterUnits="objectBoundingBox" id="n"><feOffset dy="-1" in="SourceAlpha" result="shadowOffsetOuter1"/><feColorMatrix values="0 0 0 0 0 0 0 0 0 0 0 0 0 0 0 0 0 0 0.198963995 0" in="shadowOffsetOuter1"/></filter><filter x="-8.3%" y="-63.3%" width="116.6%" height="184.4%" filterUnits="objectBoundingBox" id="w"><feOffset dy="-1" in="SourceAlpha" result="shadowOffsetOuter1"/><feColorMatrix values="0 0 0 0 0 0 0 0 0 0 0 0 0 0 0 0 0 0 0.198963995 0" in="shadowOffsetOuter1"/></filter><filter x="-2.3%" y="-4.7%" width="104.6%" height="103.3%" filterUnits="objectBoundingBox" id="b"><feOffset dy="-1" in="SourceAlpha" result="shadowOffsetOuter1"/><feColorMatrix values="0 0 0 0 0 0 0 0 0 0 0 0 0 0 0 0 0 0 0.198963995 0" in="shadowOffsetOuter1"/></filter><filter x="-77.7%" y="-34.4%" width="263.1%" height="169.3%" filterUnits="objectBoundingBox" id="e"><feOffset dy="1" in="SourceAlpha" result="shadowOffsetOuter1"/><feGaussianBlur stdDeviation="1" in="shadowOffsetOuter1" result="shadowBlurOuter1"/><feColorMatrix values="0 0 0 0 0 0 0 0 0 0 0 0 0 0 0 0 0 0 0.5 0" in="shadowBlurOuter1" result="shadowMatrixOuter1"/><feMerge><feMergeNode in="shadowMatrixOuter1"/><feMergeNode in="SourceGraphic"/></feMerge></filter><filter x="-8.6%" y="-63.2%" width="117.2%" height="184.2%" filterUnits="objectBoundingBox" id="u"><feOffset dy="-1" in="SourceAlpha" result="shadowOffsetOuter1"/><feColorMatrix values="0 0 0 0 0 0 0 0 0 0 0 0 0 0 0 0 0 0 0.198963995 0" in="shadowOffsetOuter1"/></filter><filter x="-9%" y="-58.4%" width="118%" height="177.8%" filterUnits="objectBoundingBox" id="f"><feOffset dy="-1" in="SourceAlpha" result="shadowOffsetOuter1"/><feColorMatrix values="0 0 0 0 0 0 0 0 0 0 0 0 0 0 0 0 0 0 0.198963995 0" in="shadowOffsetOuter1"/></filter><filter x="-8.9%" y="-60.6%" width="117.9%" height="180.8%" filterUnits="objectBoundingBox" id="s"><feOffset dy="-1" in="SourceAlpha" result="shadowOffsetOuter1"/><feColorMatrix values="0 0 0 0 0 0 0 0 0 0 0 0 0 0 0 0 0 0 0.198963995 0" in="shadowOffsetOuter1"/></filter><filter x="-8.9%" y="-60.6%" width="117.9%" height="180.8%" filterUnits="objectBoundingBox" id="h"><feOffset dy="-1" in="SourceAlpha" result="shadowOffsetOuter1"/><feColorMatrix values="0 0 0 0 0 0 0 0 0 0 0 0 0 0 0 0 0 0 0.198963995 0" in="shadowOffsetOuter1"/></filter><filter x="-9%" y="-58.4%" width="118%" height="177.8%" filterUnits="objectBoundingBox" id="q"><feOffset dy="-1" in="SourceAlpha" result="shadowOffsetOuter1"/><feColorMatrix values="0 0 0 0 0 0 0 0 0 0 0 0 0 0 0 0 0 0 0.198963995 0" in="shadowOffsetOuter1"/></filter><filter x="-8.6%" y="-63.2%" width="117.2%" height="184.2%" filterUnits="objectBoundingBox" id="j"><feOffset dy="-1" in="SourceAlpha" result="shadowOffsetOuter1"/><feColorMatrix values="0 0 0 0 0 0 0 0 0 0 0 0 0 0 0 0 0 0 0.198963995 0" in="shadowOffsetOuter1"/></filter><filter x="-77.7%" y="-34.4%" width="263.1%" height="169.3%" filterUnits="objectBoundingBox" id="p"><feOffset dy="1" in="SourceAlpha" result="shadowOffsetOuter1"/><feGaussianBlur stdDeviation="1" in="shadowOffsetOuter1" result="shadowBlurOuter1"/><feColorMatrix values="0 0 0 0 0 0 0 0 0 0 0 0 0 0 0 0 0 0 0.5 0" in="shadowBlurOuter1" result="shadowMatrixOuter1"/><feMerge><feMergeNode in="shadowMatrixOuter1"/><feMergeNode in="SourceGraphic"/></feMerge></filter><filter x="-8.3%" y="-63.3%" width="116.6%" height="184.4%" filterUnits="objectBoundingBox" id="l"><feOffset dy="-1" in="SourceAlpha" result="shadowOffsetOuter1"/><feColorMatrix values="0 0 0 0 0 0 0 0 0 0 0 0 0 0 0 0 0 0 0.198963995 0" in="shadowOffsetOuter1"/></filter><filter x="-33.8%" y="-30.1%" width="168.8%" height="154.1%" filterUnits="objectBoundingBox" id="a"><feOffset in="SourceAlpha" result="shadowOffsetOuter1"/><feGaussianBlur stdDeviation="1" in="shadowOffsetOuter1" result="shadowBlurOuter1"/><feColorMatrix values="0 0 0 0 0 0 0 0 0 0 0 0 0 0 0 0 0 0 1 0" in="shadowBlurOuter1" result="shadowMatrixOuter1"/><feMerge><feMergeNode in="shadowMatrixOuter1"/><feMergeNode in="SourceGraphic"/></feMerge></filter><path d="M8.048 2.97c-.486.945-1.181 1.57-2.086 1.876-.906.305-2.197.35-3.873.134 1.351-1.25 2.366-1.987 3.04-2.214.675-.228 1.648-.16 2.919.205z" id="o"/><path d="M6.002 6.757c-.461.91-1.148 1.5-2.062 1.768-.913.269-2.23.269-3.95 0 1.336-1.178 2.344-1.868 3.024-2.068.68-.2 1.677-.1 2.988.3z" id="m"/><path d="M8.17 16.31c-.424.987-1.057 1.627-1.899 1.918-.842.291-2.055.291-3.64 0 1.23-1.278 2.159-2.026 2.786-2.243.628-.218 1.545-.11 2.754.325z" id="r"/><path d="M5.898 10.68c-.419.913-1.07 1.492-1.956 1.735-.886.243-2.177.199-3.873-.134 1.266-1.158 2.229-1.828 2.888-2.009.66-.181 1.64-.045 2.94.408z" id="k"/><path d="M7.066 13.83c-.4.952-1.025 1.555-1.875 1.81-.85.255-2.09.21-3.718-.134 1.213-1.208 2.137-1.907 2.77-2.097.633-.19 1.574-.05 2.823.42z" id="t"/><path d="M7.066 13.83c-.4.952-1.025 1.555-1.875 1.81-.85.255-2.09.21-3.718-.134 1.213-1.208 2.137-1.907 2.77-2.097.633-.19 1.574-.05 2.823.42z" id="i"/><path d="M5.898 10.68c-.419.913-1.07 1.492-1.956 1.735-.886.243-2.177.199-3.873-.134 1.266-1.158 2.229-1.828 2.888-2.009.66-.181 1.64-.045 2.94.408z" id="v"/><path d="M8.17 16.31c-.424.987-1.057 1.627-1.899 1.918-.842.291-2.055.291-3.64 0 1.23-1.278 2.159-2.026 2.786-2.243.628-.218 1.545-.11 2.754.325z" id="g"/><path d="M6.002 6.757c-.461.91-1.148 1.5-2.062 1.768-.913.269-2.23.269-3.95 0 1.336-1.178 2.344-1.868 3.024-2.068.68-.2 1.677-.1 2.988.3z" id="x"/><path d="M8.456 3.557l-5.981 8.234L.413 8.896a1 1 0 010-1.16l4.695-6.592a1 1 0 011.63 0l1.718 2.413zm1.071 1.505l1.905 2.674a1 1 0 010 1.16l-4.695 6.592a1 1 0 01-1.629 0l-1.562-2.193 5.981-8.233z" id="c"/><path d="M8.048 2.97c-.486.945-1.181 1.57-2.086 1.876-.906.305-2.197.35-3.873.134 1.351-1.25 2.366-1.987 3.04-2.214.675-.228 1.648-.16 2.919.205z" id="z"/><linearGradient x1="50%" y1="91.711%" x2="50%" y2="22.412%" id="d"><stop stop-color="#FFD000" offset="0%"/><stop stop-color="#C19D26" offset="49.782%"/><stop stop-color="#FBDE5B" offset="58.531%"/><stop stop-color="#FFE35F" offset="77.804%"/><stop stop-color="#FBDE5B" offset="100%"/></linearGradient></defs><g fill="none"><g filter="url(#a)" transform="translate(5.877 2.512)"><use fill="#000" filter="url(#b)" xlink:href="#c"/><use fill="url(#d)" xlink:href="#c"/></g><g filter="url(#e)" transform="translate(1 1)"><use fill="#000" filter="url(#f)" xlink:href="#g"/><use fill="#FFD000" xlink:href="#g"/><g transform="rotate(30 4.27 14.565)"><use fill="#000" filter="url(#h)" xlink:href="#i"/><use fill="#FFD000" xlink:href="#i"/></g><g transform="rotate(60 2.983 11.382)"><use fill="#000" filter="url(#j)" xlink:href="#k"/><use fill="#FFD000" xlink:href="#k"/></g><g transform="rotate(90 2.996 7.542)"><use fill="#000" filter="url(#l)" xlink:href="#m"/><use fill="#FFD000" xlink:href="#m"/></g><g transform="rotate(120 5.068 3.874)"><use fill="#000" filter="url(#n)" xlink:href="#o"/><use fill="#FFD000" xlink:href="#o"/></g></g><g filter="url(#p)" transform="matrix(-1 0 0 1 22.6 1)"><use fill="#000" filter="url(#q)" xlink:href="#r"/><use fill="#FFD000" xlink:href="#r"/><g transform="rotate(30 4.27 14.565)"><use fill="#000" filter="url(#s)" xlink:href="#t"/><use fill="#FFD000" xlink:href="#t"/></g><g transform="rotate(60 2.983 11.382)"><use fill="#000" filter="url(#u)" xlink:href="#v"/><use fill="#FFD000" xlink:href="#v"/></g><g transform="rotate(90 2.996 7.542)"><use fill="#000" filter="url(#w)" xlink:href="#x"/><use fill="#FFD000" xlink:href="#x"/></g><g transform="rotate(120 5.068 3.874)"><use fill="#000" filter="url(#y)" xlink:href="#z"/><use fill="#FFD000" xlink:href="#z"/></g></g></g></svg>