<svg width="48" height="42" xmlns="http://www.w3.org/2000/svg" xmlns:xlink="http://www.w3.org/1999/xlink"><g fill="#DA773B"><use xlink:href="#path0_fill"/><use xlink:href="#path1_fill"/><use xlink:href="#path2_fill"/><use xlink:href="#path3_fill"/><use xlink:href="#path4_fill"/><use xlink:href="#path5_fill"/><use xlink:href="#path6_fill"/><use xlink:href="#path7_fill"/><use xlink:href="#path8_fill"/><use xlink:href="#path9_fill"/></g><defs><path id="path0_fill" d="M30.353 32.4c3.692-4.314 9.974-5.6 15.537-4.773l1.15.183-.719.918c-3.548 4.451-10.07 5.874-15.584 4.773l-1.151-.23.767-.872z"/><path id="path1_fill" d="M31.793.642c3.884 2.983 6.234 7.94 5.227 12.712l-.192 1.056-.91-.643c-3.98-2.845-6.666-8.077-5.276-12.803L30.93 0l.863.642z"/><path id="path2_fill" d="M47.807 15.97c-.768 5.231-4.652 10.463-10.214 11.656l-1.007.23.192-1.01c1.007-5.186 4.795-9.959 10.166-11.61l1.054-.322-.191 1.056z"/><path id="path3_fill" d="M42.006 4.589c2.062 4.543 1.438 10.05-1.727 13.996l-.767.918-.48-1.101c-1.917-4.543-1.438-10.05 1.775-13.951l.72-.872.479 1.01z"/><path id="path4_fill" d="M7.146 4.452c3.213 3.947 3.693 9.408 1.775 13.95l-.48 1.102-.767-.918C4.509 14.64 3.886 9.133 5.948 4.59l.48-1.056.718.918z"/><path id="path5_fill" d="M17.214 33.5c-5.515 1.101-12.036-.322-15.585-4.773L.91 27.81l1.151-.183c5.562-.826 11.844.413 15.536 4.772l.72.872-1.103.23z"/><path id="path6_fill" d="M17.31.964c1.438 4.726-1.247 9.958-5.275 12.803l-.911.643-.192-1.056C9.973 8.582 12.275 3.625 16.16.642L17.022 0l.288.964z"/><path id="path7_fill" d="M1.055 15.235c5.37 1.607 9.159 6.38 10.166 11.61l.191 1.01-1.007-.23C4.795 26.434.912 21.202.145 15.97L0 14.913l1.055.321z"/><path id="path8_fill" d="M27.861 37.218c.911.917 1.822 1.79 2.925 2.524l.767.459-.671.596c-.288.23-.527.46-.815.734l-.336.276-.431-.184c-2.59-1.055-3.31-3.717-5.323-4.956-2.014 1.24-2.733 3.9-5.323 4.956l-.431.184-.336-.322a11.483 11.483 0 01-.815-.734l-.671-.596.767-.46c1.103-.688 2.014-1.605 2.925-2.523-1.247.596-2.446 1.285-3.884 1.514-2.494.413-5.227.55-7.625-.459l-1.15-.505 1.055-.688c2.35-1.56 4.89-3.029 7.864-3.258 2.301-.138 4.651-.046 6.953.413h.095a2.08 2.08 0 001.295 0h.096c2.254-.505 4.603-.55 6.953-.413 2.925.23 5.467 1.698 7.864 3.258l1.055.688-1.15.505c-2.398 1.01-5.084.872-7.625.46-1.534-.184-2.781-.873-4.028-1.47z"/><path id="path9_fill" d="M22.422 18.276h1.338c.508 0 .879-.175 1.113-.527.24-.358.361-.833.361-1.426 0-.566-.123-1.006-.37-1.318a1.16 1.16 0 00-.977-.479c-.384 0-.7.15-.948.45-.24.3-.36.677-.36 1.132h-2.765c0-.742.17-1.406.508-1.992a3.632 3.632 0 011.436-1.386 4.267 4.267 0 012.05-.499c1.31 0 2.335.362 3.077 1.084.742.723 1.113 1.713 1.113 2.97a3.38 3.38 0 01-.508 1.796 3.4 3.4 0 01-1.318 1.26c.67.286 1.168.716 1.494 1.289.332.573.498 1.25.498 2.031 0 1.263-.404 2.275-1.21 3.037-.802.762-1.856 1.143-3.165 1.143-1.217 0-2.207-.375-2.969-1.123-.755-.755-1.133-1.745-1.133-2.969h2.764c0 .508.134.934.4 1.28.268.344.606.517 1.016.517.475 0 .85-.176 1.123-.527.28-.352.42-.82.42-1.407 0-1.4-.544-2.103-1.63-2.11h-1.358v-2.226z"/></defs></svg>