<svg width="30" height="24" fill="none" xmlns="http://www.w3.org/2000/svg"><path fill-rule="evenodd" clip-rule="evenodd" d="M26.557 18.72C23.724 22.575 18.688 24 18.688 24c-1.334-.466-5.08-2.154-7.377-5.28-.217-.296-.42-.6-.61-.91l3.023-1.265-.446 2.175 2.46-1.44v2.4l2.95-2.88v5.234c.75-.239 4.335-1.5 6.455-4.39 3.005-4.092 2.89-10.08 2.89-10.08s-1.438-.56-2.064-1.612c-.748-1.256-.826-2.822-.826-2.822s-1.261-1.078-5.778-1.198V1.92h-.677V7.2l-3.442-3.84.491 3.84-3.748-2.287c-.026.077-.056.153-.086.23l.861 2.94-4.355-1.62c.567-.3 1.44-.859 1.919-1.663.89-1.496.983-3.36.983-3.36S12.814.157 18.197.014V0h1.475v.014c5.382.143 6.885 1.426 6.885 1.426s.093 1.864.983 3.36C28.287 6.053 30 6.72 30 6.72s.137 7.128-3.443 12zM13.77 9.6h.984s8.36.464 8.36 2.91c0 2.316-8.222 2.841-8.349 2.85v.015H0V9.614h13.77V9.6zm-.155 1.44h-.828v2.88h.828s7.04-.258 7.04-1.425c0-1.223-7.04-1.455-7.04-1.455z" fill="#9CC3D4"/></svg>