<svg width="36" height="23" xmlns="http://www.w3.org/2000/svg" xmlns:xlink="http://www.w3.org/1999/xlink"><use xlink:href="#path0_fill" fill="#6492BB"/><defs><path id="path0_fill" d="M32.044 15.831s2.91 3.155 3.63 4.615a.256.256 0 01.033.069c.293.54.365.962.221 1.274-.243.515-1.065.774-1.344.796h-5.145c-.358 0-1.103-.103-2.01-.79-.693-.531-1.383-1.407-2.05-2.262-.998-1.27-1.86-2.372-2.733-2.372-.112 0-.22.02-.324.059-.66.23-1.5 1.262-1.5 4.014 0 .861-.619 1.351-1.052 1.351h-2.357c-.802 0-4.982-.308-8.688-4.597C4.183 12.738.105 2.206.065 2.113-.189 1.43.344 1.06.92 1.06h5.195c.696 0 .923.462 1.082.877.183.476.864 2.38 1.98 4.52 1.807 3.48 2.917 4.896 3.805 4.896a.884.884 0 00.475-.138c1.16-.7.943-5.242.89-6.179 0-.181-.003-2.028-.597-2.921-.424-.64-1.148-.889-1.585-.98.117-.186.365-.47.684-.638C13.642.062 15.077 0 16.5 0h.79c1.544.024 1.944.133 2.506.289 1.13.296 1.152 1.1 1.053 3.838-.03.782-.06 1.663-.06 2.7 0 .221-.009.468-.009.719-.034 1.404-.079 2.987.825 3.637a.69.69 0 00.39.122c.313 0 1.251 0 3.795-4.79 1.116-2.116 1.98-4.61 2.039-4.798.05-.105.202-.4.385-.518a.8.8 0 01.425-.11h6.111c.666 0 1.118.11 1.206.387.148.448-.029 1.817-2.819 5.957-.47.69-.882 1.286-1.244 1.808-2.529 3.642-2.529 3.826.15 6.591l.001-.001z"/></defs></svg>