<svg width="16" height="16" xmlns="http://www.w3.org/2000/svg" xmlns:xlink="http://www.w3.org/1999/xlink"><g transform="translate(-4203 -428)"><mask id="a"><use xlink:href="#path0_fill" fill="#fff" transform="translate(4203 428)"/></mask><g mask="url(#a)"><use xlink:href="#path1_stroke_2x" transform="translate(4203 428)" fill="#CED6D5" fill-opacity=".6"/></g></g><use xlink:href="#path2_stroke" transform="translate(8 2.909)" fill="#CED6D5" fill-opacity=".6"/><defs><path id="path0_fill" d="M16 8A8 8 0 110 8a8 8 0 0116 0z"/><path id="path1_stroke_2x" d="M14 8a6 6 0 01-6 6v4c5.523 0 10-4.477 10-10h-4zm-6 6a6 6 0 01-6-6h-4c0 5.523 4.477 10 10 10v-4zM2 8a6 6 0 016-6v-4C2.477-2-2 2.477-2 8h4zm6-6a6 6 0 016 6h4C18 2.477 13.523-2 8-2v4z"/><path id="path2_stroke" d="M0 5.55h-1v.465l.356.3L0 5.55zM-1 0v5.55h2V0h-2zm.356 6.315l2.909 2.45 1.288-1.53-2.909-2.45-1.288 1.53z"/></defs></svg>