<svg width="14" height="11" xmlns="http://www.w3.org/2000/svg" xmlns:xlink="http://www.w3.org/1999/xlink"><g transform="translate(1 1)" fill="#CED6D5" fill-opacity=".6"><use xlink:href="#path0_fill"/><use xlink:href="#path1_stroke"/></g><defs><path id="path0_fill" d="M4.508 9L0 4.217l.854-.923 3.654 3.862L11.146 0 12 .92 4.508 9z"/><path id="path1_stroke" d="M4.508 9l-.364.343.367.39.364-.393L4.508 9zM0 4.217l-.367-.34-.317.343.32.34L0 4.217zm.854-.923l.363-.344-.367-.388-.363.392.367.34zm3.654 3.862l-.363.344.367.387.363-.39-.367-.34zM11.146 0l.367-.34-.367-.395-.367.395.367.34zM12 .92l.367.34.315-.34-.315-.34L12 .92zM4.872 8.658L.364 3.874l-.728.686 4.508 4.783.728-.686zm-4.505-4.1l.854-.924-.734-.679-.854.923.734.68zm.124-.92L4.145 7.5l.726-.688L1.217 2.95l-.726.687zm4.384 3.86L11.513.34l-.733-.68-6.638 7.156.733.68zM10.78.34l.853.92.734-.68-.854-.92-.733.68zm.853.24L4.142 8.66l.733.68 7.492-8.08-.734-.68z"/></defs></svg>