<svg width="14" height="12" fill="none" xmlns="http://www.w3.org/2000/svg"><path fill-rule="evenodd" clip-rule="evenodd" d="M13.643 10.968L11.8 9.218a.324.324 0 00-.439.023l-.459.438a.285.285 0 00-.102.204.278.278 0 00.086.212l1.843 1.755a.315.315 0 00.429-.024l.464-.442a.29.29 0 00.082-.318.288.288 0 00-.061-.098zM3.066 7.222L10.422.076h1.915V1.92L4.893 8.983l1.173 1.13a.352.352 0 01-.028.508l-.555.535a.375.375 0 01-.52.028L.78 7.156a.354.354 0 01-.059-.396.355.355 0 01.087-.111l.555-.535a.376.376 0 01.52-.028l1.18 1.136zm6.342-1.204l1.23 1.193 1.186-1.125a.395.395 0 01.534.028l.563.534a.35.35 0 01.124.248.344.344 0 01-.097.26l-4.243 4.027a.394.394 0 01-.534-.028l-.555-.534a.35.35 0 01-.11-.387.348.348 0 01.075-.121l1.211-1.15-1.24-1.176.768-.732.954.922a.096.096 0 00.137-.007l.151-.145a.098.098 0 00.007-.137l.007-.003-.952-.92.783-.746v-.001zM6.223 2.932l-.79.753-1.706-1.65a.097.097 0 00-.107-.014.097.097 0 00-.03.022l-.151.148a.098.098 0 00-.012.135L5.13 3.972l-.797.76-2.962-2.81V.076h1.91l2.942 2.856zM.08 10.968l1.843-1.75a.324.324 0 01.439.023l.46.438a.29.29 0 01.086.317.289.289 0 01-.06.1l-1.843 1.75a.324.324 0 01-.439-.023L.1 11.384a.29.29 0 01-.082-.318.29.29 0 01.062-.098zm4.073-3.283l-.002.004a.093.093 0 00-.018.108.093.093 0 00.025.03l.144.144a.105.105 0 00.144.007l5.791-5.632a.092.092 0 00-.007-.137l-.148-.145a.106.106 0 00-.144-.007L4.153 7.685z" fill="#fff" fill-opacity=".8"/></svg>