<svg width="17" height="18" xmlns="http://www.w3.org/2000/svg" xmlns:xlink="http://www.w3.org/1999/xlink"><g transform="translate(14517 -16425)"><mask id="a"><use xlink:href="#path0_fill" fill="#fff" transform="translate(-14517 16425)"/></mask><g mask="url(#a)"><use xlink:href="#path1_stroke_2x" transform="translate(-14517 16425)" fill="#838B8D"/></g></g><use xlink:href="#path2_fill" transform="matrix(.69278 .72114 -.69278 .72114 12.3 11.6)" fill="#838B8D"/><defs><path id="path0_fill" d="M14.875 7.742c0 4.276-3.33 7.742-7.437 7.742C3.33 15.484 0 12.018 0 7.742S3.33 0 7.438 0c4.107 0 7.437 3.466 7.437 7.742z"/><path id="path1_stroke_2x" d="M12.875 7.742c0 3.248-2.51 5.742-5.437 5.742v4c5.287 0 9.437-4.438 9.437-9.742h-4zm-5.437 5.742C4.509 13.484 2 10.99 2 7.742h-4c0 5.304 4.15 9.742 9.438 9.742v-4zM2 7.742C2 4.494 4.51 2 7.438 2v-4C2.15-2-2 2.438-2 7.742h4zM7.438 2c2.928 0 5.437 2.494 5.437 5.742h4C16.875 2.438 12.725-2 7.438-2v4z"/><path id="path2_fill" d="M0 1a1 1 0 011-1h4.748a1 1 0 011 1v.109a1 1 0 01-1 1H1a1 1 0 01-1-1V1z"/></defs></svg>