<svg width="70" height="84" fill="none" xmlns="http://www.w3.org/2000/svg"><path fill-rule="evenodd" clip-rule="evenodd" d="M70 12.592c-.82 9.414-2.834 44.53-2.834 44.53L34.766 84 2.629 57.18S.619 19.625 0 12.59C8.688 4.85 21.15 0 34.998 0 48.848 0 61.313 4.852 70 12.592zm-6.33 42.717L34.772 79.28 6.13 55.38l-.006-.096-.236-4.56c-.198-3.803-.47-8.948-.758-14.313-.498-9.219-1.059-17.36-1.406-22.232 7.914-6.446 18.95-10.526 31.273-10.526 12.32 0 23.358 4.078 31.271 10.526a1265.943 1265.943 0 00-1.578 23.08c-.302 5.21-.58 10.125-.78 13.738l-.241 4.313zm-49.31-6.23c0 .024 20.51 16.66 20.51 16.66s20.77-16.546 20.77-16.66c0-5.597-4.591-9.466-10.144-10.987-2.539 3.474-6.357 6.082-10.629 6.082-4.248 0-8.047-2.578-10.584-6.022-5.453 1.56-9.924 5.407-9.924 10.926zm13.556-20.804c0 4.041 3.113 9.06 6.951 9.06 3.84 0 6.953-5.019 6.953-9.06v-4.523c0-4.04-3.113-7.318-6.953-7.318-3.838 0-6.951 3.279-6.951 7.318v4.523z" fill="#9BC3D4"/></svg>