<svg width="14" height="14" fill="none" xmlns="http://www.w3.org/2000/svg"><path fill-rule="evenodd" clip-rule="evenodd" d="M6.861 14C3.071 14 0 10.866 0 7s3.072-7 6.861-7c3.79 0 6.861 3.134 6.861 7s-3.072 7-6.86 7zm5.404-4.846H9.367c-.177 1.448-.524 2.693-.983 3.556 1.78-.493 3.216-1.827 3.88-3.556zm-5.404 3.77c.673 0 1.247-1.565 1.478-3.77H5.383c.231 2.205.805 3.77 1.478 3.77zM8.45 7c0-.368-.01-.727-.027-1.077H5.3a21.819 21.819 0 000 2.154h3.12c.018-.35.028-.709.028-1.077zm-3.11 5.71c-.46-.863-.807-2.108-.984-3.556H1.457c.665 1.73 2.102 3.063 3.881 3.556zM1.055 7c0 .368.035.728.098 1.077h3.103c-.02-.352-.035-.71-.035-1.077s.014-.725.035-1.077H1.154c-.063.35-.098.709-.098 1.077zm.401-2.154h2.898c.177-1.448.524-2.693.983-3.556-1.78.493-3.216 1.827-3.88 3.556zm5.404-3.77c-.673 0-1.247 1.565-1.478 3.77H8.34c-.231-2.205-.805-3.77-1.478-3.77zm1.523.214c.46.863.806 2.108.983 3.556h2.898c-.665-1.73-2.101-3.063-3.88-3.556zm4.184 4.633H9.465c.02.352.035.71.035 1.077s-.014.725-.035 1.077h3.103A6.06 6.06 0 0012.667 7a6.06 6.06 0 00-.099-1.077z" fill="#fff" fill-opacity=".8"/></svg>