<svg width="15" height="15" xmlns="http://www.w3.org/2000/svg" xmlns:xlink="http://www.w3.org/1999/xlink"><use xlink:href="#path0_fill" fill="#9BC3D4"/><use xlink:href="#path1_fill" transform="translate(6.5 3.8)" fill="#9BC3D4"/><defs><path id="path0_fill" d="M7.5 1.333c3.4 0 6.167 2.767 6.167 6.167S10.9 13.667 7.5 13.667A6.174 6.174 0 011.333 7.5c0-3.4 2.767-6.167 6.167-6.167zM7.5 0A7.49 7.49 0 000 7.5C0 11.65 3.35 15 7.5 15S15 11.65 15 7.5 11.65 0 7.5 0z"/><path id="path1_fill" d="M3.9 3.567H1.333v-2.9C1.333.3 1.033 0 .667 0 .3 0 0 .3 0 .667V3.9c0 .067.017.117.017.167C0 4.117 0 4.183 0 4.233 0 4.6.3 4.9.667 4.9H3.9c.367 0 .667-.3.667-.667 0-.366-.3-.666-.667-.666z"/></defs></svg>