<svg width="24" height="22" xmlns="http://www.w3.org/2000/svg" xmlns:xlink="http://www.w3.org/1999/xlink"><defs><filter x="-77.7%" y="-34.4%" width="263.1%" height="169.3%" filterUnits="objectBoundingBox" id="a"><feOffset dy="1" in="SourceAlpha" result="shadowOffsetOuter1"/><feGaussianBlur stdDeviation="1" in="shadowOffsetOuter1" result="shadowBlurOuter1"/><feColorMatrix values="0 0 0 0 0 0 0 0 0 0 0 0 0 0 0 0 0 0 0.5 0" in="shadowBlurOuter1" result="shadowMatrixOuter1"/><feMerge><feMergeNode in="shadowMatrixOuter1"/><feMergeNode in="SourceGraphic"/></feMerge></filter><filter x="-3.1%" y="-14%" width="106.2%" height="115.1%" filterUnits="objectBoundingBox" id="x"><feOffset dy="-1" in="SourceAlpha" result="shadowOffsetOuter1"/><feColorMatrix values="0 0 0 0 0 0 0 0 0 0 0 0 0 0 0 0 0 0 0.198963995 0" in="shadowOffsetOuter1"/></filter><filter x="-9%" y="-58.4%" width="118%" height="177.8%" filterUnits="objectBoundingBox" id="b"><feOffset dy="-1" in="SourceAlpha" result="shadowOffsetOuter1"/><feColorMatrix values="0 0 0 0 0 0 0 0 0 0 0 0 0 0 0 0 0 0 0.198963995 0" in="shadowOffsetOuter1"/></filter><filter x="-35.9%" y="-44.1%" width="171.8%" height="179.4%" filterUnits="objectBoundingBox" id="w"><feOffset in="SourceAlpha" result="shadowOffsetOuter1"/><feGaussianBlur stdDeviation="1" in="shadowOffsetOuter1" result="shadowBlurOuter1"/><feColorMatrix values="0 0 0 0 0 0 0 0 0 0 0 0 0 0 0 0 0 0 1 0" in="shadowBlurOuter1" result="shadowMatrixOuter1"/><feMerge><feMergeNode in="shadowMatrixOuter1"/><feMergeNode in="SourceGraphic"/></feMerge></filter><filter x="-8.9%" y="-60.6%" width="117.9%" height="180.8%" filterUnits="objectBoundingBox" id="d"><feOffset dy="-1" in="SourceAlpha" result="shadowOffsetOuter1"/><feColorMatrix values="0 0 0 0 0 0 0 0 0 0 0 0 0 0 0 0 0 0 0.198963995 0" in="shadowOffsetOuter1"/></filter><filter x="-8.4%" y="-60.5%" width="116.8%" height="180.7%" filterUnits="objectBoundingBox" id="u"><feOffset dy="-1" in="SourceAlpha" result="shadowOffsetOuter1"/><feColorMatrix values="0 0 0 0 0 0 0 0 0 0 0 0 0 0 0 0 0 0 0.198963995 0" in="shadowOffsetOuter1"/></filter><filter x="-8.6%" y="-63.2%" width="117.2%" height="184.2%" filterUnits="objectBoundingBox" id="f"><feOffset dy="-1" in="SourceAlpha" result="shadowOffsetOuter1"/><feColorMatrix values="0 0 0 0 0 0 0 0 0 0 0 0 0 0 0 0 0 0 0.198963995 0" in="shadowOffsetOuter1"/></filter><filter x="-8.3%" y="-63.3%" width="116.6%" height="184.4%" filterUnits="objectBoundingBox" id="s"><feOffset dy="-1" in="SourceAlpha" result="shadowOffsetOuter1"/><feColorMatrix values="0 0 0 0 0 0 0 0 0 0 0 0 0 0 0 0 0 0 0.198963995 0" in="shadowOffsetOuter1"/></filter><filter x="-8.3%" y="-63.3%" width="116.6%" height="184.4%" filterUnits="objectBoundingBox" id="h"><feOffset dy="-1" in="SourceAlpha" result="shadowOffsetOuter1"/><feColorMatrix values="0 0 0 0 0 0 0 0 0 0 0 0 0 0 0 0 0 0 0.198963995 0" in="shadowOffsetOuter1"/></filter><filter x="-8.6%" y="-63.2%" width="117.2%" height="184.2%" filterUnits="objectBoundingBox" id="q"><feOffset dy="-1" in="SourceAlpha" result="shadowOffsetOuter1"/><feColorMatrix values="0 0 0 0 0 0 0 0 0 0 0 0 0 0 0 0 0 0 0.198963995 0" in="shadowOffsetOuter1"/></filter><filter x="-8.4%" y="-60.5%" width="116.8%" height="180.7%" filterUnits="objectBoundingBox" id="j"><feOffset dy="-1" in="SourceAlpha" result="shadowOffsetOuter1"/><feColorMatrix values="0 0 0 0 0 0 0 0 0 0 0 0 0 0 0 0 0 0 0.198963995 0" in="shadowOffsetOuter1"/></filter><filter x="-77.7%" y="-34.4%" width="263.1%" height="169.3%" filterUnits="objectBoundingBox" id="l"><feOffset dy="1" in="SourceAlpha" result="shadowOffsetOuter1"/><feGaussianBlur stdDeviation="1" in="shadowOffsetOuter1" result="shadowBlurOuter1"/><feColorMatrix values="0 0 0 0 0 0 0 0 0 0 0 0 0 0 0 0 0 0 0.5 0" in="shadowBlurOuter1" result="shadowMatrixOuter1"/><feMerge><feMergeNode in="shadowMatrixOuter1"/><feMergeNode in="SourceGraphic"/></feMerge></filter><filter x="-8.9%" y="-60.6%" width="117.9%" height="180.8%" filterUnits="objectBoundingBox" id="o"><feOffset dy="-1" in="SourceAlpha" result="shadowOffsetOuter1"/><feColorMatrix values="0 0 0 0 0 0 0 0 0 0 0 0 0 0 0 0 0 0 0.198963995 0" in="shadowOffsetOuter1"/></filter><filter x="-9%" y="-58.4%" width="118%" height="177.8%" filterUnits="objectBoundingBox" id="m"><feOffset dy="-1" in="SourceAlpha" result="shadowOffsetOuter1"/><feColorMatrix values="0 0 0 0 0 0 0 0 0 0 0 0 0 0 0 0 0 0 0.198963995 0" in="shadowOffsetOuter1"/></filter><path d="M8.17 16.31c-.424.987-1.057 1.627-1.899 1.918-.842.291-2.055.291-3.64 0 1.23-1.278 2.159-2.026 2.786-2.243.628-.218 1.545-.11 2.754.325z" id="n"/><path d="M8.048 2.97c-.486.945-1.181 1.57-2.086 1.876-.906.305-2.197.35-3.873.134 1.351-1.25 2.366-1.987 3.04-2.214.675-.228 1.648-.16 2.919.205z" id="v"/><path d="M5.898 10.68c-.419.913-1.07 1.492-1.956 1.735-.886.243-2.177.199-3.873-.134 1.266-1.158 2.229-1.828 2.888-2.009.66-.181 1.64-.045 2.94.408z" id="r"/><path d="M8.048 2.97c-.486.945-1.181 1.57-2.086 1.876-.906.305-2.197.35-3.873.134 1.351-1.25 2.366-1.987 3.04-2.214.675-.228 1.648-.16 2.919.205z" id="k"/><path d="M6.002 6.757c-.461.91-1.148 1.5-2.062 1.768-.913.269-2.23.269-3.95 0 1.336-1.178 2.344-1.868 3.024-2.068.68-.2 1.677-.1 2.988.3z" id="t"/><path d="M7.066 13.83c-.4.952-1.025 1.555-1.875 1.81-.85.255-2.09.21-3.718-.134 1.213-1.208 2.137-1.907 2.77-2.097.633-.19 1.574-.05 2.823.42z" id="p"/><path d="M8.17 16.31c-.424.987-1.057 1.627-1.899 1.918-.842.291-2.055.291-3.64 0 1.23-1.278 2.159-2.026 2.786-2.243.628-.218 1.545-.11 2.754.325z" id="c"/><path d="M5.898 10.68c-.419.913-1.07 1.492-1.956 1.735-.886.243-2.177.199-3.873-.134 1.266-1.158 2.229-1.828 2.888-2.009.66-.181 1.64-.045 2.94.408z" id="g"/><path d="M7.066 13.83c-.4.952-1.025 1.555-1.875 1.81-.85.255-2.09.21-3.718-.134 1.213-1.208 2.137-1.907 2.77-2.097.633-.19 1.574-.05 2.823.42z" id="e"/><path d="M10.877 1.467L6.46 9.838a1 1 0 01-1.77 0L.272 1.467A1 1 0 011.156 0h8.837a1 1 0 01.884 1.467z" id="y"/><path d="M6.002 6.757c-.461.91-1.148 1.5-2.062 1.768-.913.269-2.23.269-3.95 0 1.336-1.178 2.344-1.868 3.024-2.068.68-.2 1.677-.1 2.988.3z" id="i"/><linearGradient x1="50%" y1="91.711%" x2="50%" y2="22.412%" id="z"><stop stop-color="#FFD000" offset="0%"/><stop stop-color="#C19D26" offset="49.782%"/><stop stop-color="#FBDE5B" offset="58.531%"/><stop stop-color="#FFE35F" offset="77.804%"/><stop stop-color="#FBDE5B" offset="100%"/></linearGradient></defs><g fill="none"><g filter="url(#a)" transform="translate(1)"><use fill="#000" filter="url(#b)" xlink:href="#c"/><use fill="#FFD000" xlink:href="#c"/><g transform="rotate(30 4.27 14.565)"><use fill="#000" filter="url(#d)" xlink:href="#e"/><use fill="#FFD000" xlink:href="#e"/></g><g transform="rotate(60 2.983 11.382)"><use fill="#000" filter="url(#f)" xlink:href="#g"/><use fill="#FFD000" xlink:href="#g"/></g><g transform="rotate(90 2.996 7.542)"><use fill="#000" filter="url(#h)" xlink:href="#i"/><use fill="#FFD000" xlink:href="#i"/></g><g transform="rotate(120 5.068 3.874)"><use fill="#000" filter="url(#j)" xlink:href="#k"/><use fill="#FFD000" xlink:href="#k"/></g></g><g filter="url(#l)" transform="matrix(-1 0 0 1 22.6 0)"><use fill="#000" filter="url(#m)" xlink:href="#n"/><use fill="#FFD000" xlink:href="#n"/><g transform="rotate(30 4.27 14.565)"><use fill="#000" filter="url(#o)" xlink:href="#p"/><use fill="#FFD000" xlink:href="#p"/></g><g transform="rotate(60 2.983 11.382)"><use fill="#000" filter="url(#q)" xlink:href="#r"/><use fill="#FFD000" xlink:href="#r"/></g><g transform="rotate(90 2.996 7.542)"><use fill="#000" filter="url(#s)" xlink:href="#t"/><use fill="#FFD000" xlink:href="#t"/></g><g transform="rotate(120 5.068 3.874)"><use fill="#000" filter="url(#u)" xlink:href="#v"/><use fill="#FFD000" xlink:href="#v"/></g></g><g filter="url(#w)" transform="translate(6.086 6.048)"><use fill="#000" filter="url(#x)" xlink:href="#y"/><use fill="url(#z)" xlink:href="#y"/></g></g></svg>