<svg width="43" height="51" fill="none" xmlns="http://www.w3.org/2000/svg"><path fill-rule="evenodd" clip-rule="evenodd" d="M43 7.646c-.504 5.714-1.74 27.036-1.74 27.036L21.356 51 1.616 34.717s-.376-6.91-.774-13.834C.516 15.229.172 9.564 0 7.643 5.336 2.945 12.992 0 21.498 0 30.006 0 37.664 2.945 43 7.646zM39.111 33.58L21.36 48.136 3.766 33.623l-.002-.058-.147-2.768c-.12-2.31-.287-5.434-.465-8.69a773.242 773.242 0 00-.865-13.499c4.861-3.914 11.643-6.39 19.211-6.39 7.568 0 14.35 2.476 19.211 6.39a795.42 795.42 0 00-.416 5.565 660.687 660.687 0 00-.553 8.448c-.187 3.163-.357 6.148-.48 8.34l-.149 2.62zM8.821 29.8c0 .015 12.599 10.115 12.599 10.115S34.18 29.87 34.18 29.8c0-3.398-2.823-5.747-6.233-6.671-1.56 2.11-3.906 3.692-6.529 3.692-2.61 0-4.943-1.564-6.502-3.655-3.35.948-6.096 3.282-6.096 6.634zm8.327-12.63c0 2.452 1.913 5.5 4.27 5.5 2.36 0 4.271-3.048 4.271-5.5v-2.747c0-2.453-1.912-4.443-4.271-4.443-2.357 0-4.27 1.99-4.27 4.443v2.747z" fill="#9BC3D4"/></svg>