<svg width="40" height="40" xmlns="http://www.w3.org/2000/svg" xmlns:xlink="http://www.w3.org/1999/xlink"><defs><path id="a" d="M.018.29h35.83V26H.018z"/></defs><g fill="none" fill-rule="evenodd"><g transform="translate(2 7)"><mask id="b" fill="#fff"><use xlink:href="#a"/></mask><path d="M35.099 4.305c-.412-1.58-1.627-2.825-3.17-3.247C29.135.29 17.925.29 17.925.29s-11.21 0-14.006.767C2.376 1.48 1.161 2.725.75 4.305 0 7.169 0 13.145 0 13.145s0 5.976.75 8.84c.411 1.58 1.626 2.825 3.168 3.247C6.714 26 17.924 26 17.924 26s11.21 0 14.006-.768c1.542-.422 2.757-1.667 3.169-3.247.749-2.864.749-8.84.749-8.84s0-5.976-.75-8.84" fill="#D9252A" mask="url(#b)"/></g><path fill="#FFFFFE" d="M17 25l9-5.5-9-5.5v11"/></g></svg>