<svg width="12" height="12" xmlns="http://www.w3.org/2000/svg" xmlns:xlink="http://www.w3.org/1999/xlink"><g transform="translate(8902 -20152)"><use xlink:href="#path0_fill" transform="translate(-8901 20153)" fill="#9AC2D4"/><use xlink:href="#path1_fill" transform="translate(-8901 20153)" fill="#9AC2D4"/><mask id="a"><path fill="#fff" transform="translate(-8901 20153)" d="M-1-1h12v12H-1z"/><use xlink:href="#path0_fill" transform="translate(-8901 20153)"/><use xlink:href="#path1_fill" transform="translate(-8901 20153)"/></mask><g mask="url(#a)"><use xlink:href="#path2_stroke_2x" transform="translate(-8901 20153)" fill="#9AC2D4"/></g></g><defs><path id="path0_fill" d="M5 .889A4.116 4.116 0 019.111 5 4.116 4.116 0 015 9.111 4.116 4.116 0 01.889 5 4.116 4.116 0 015 .889zM5 0C2.233 0 0 2.233 0 5s2.233 5 5 5 5-2.233 5-5-2.233-5-5-5z"/><path id="path1_fill" d="M6.922 4.89h-1.71V2.955a.446.446 0 00-.889 0v2.156c0 .044.01.077.01.11-.01.034-.01.079-.01.112 0 .244.2.444.444.444h2.155c.245 0 .445-.2.445-.444s-.2-.444-.445-.444z"/><path id="path2_stroke_2x" d="M5.211 4.89h-.25v.25h.25v-.25zm-.878.333l.238.079.012-.039v-.04h-.25zM5 1.139A3.866 3.866 0 018.861 5h.5A4.366 4.366 0 005 .639v.5zM8.861 5A3.866 3.866 0 015 8.861v.5A4.366 4.366 0 009.361 5h-.5zM5 8.861A3.866 3.866 0 011.139 5h-.5A4.366 4.366 0 005 9.361v-.5zM1.139 5A3.866 3.866 0 015 1.139v-.5A4.366 4.366 0 00.639 5h.5zM5-.25A5.243 5.243 0 00-.25 5h.5A4.743 4.743 0 015 .25v-.5zM-.25 5A5.243 5.243 0 005 10.25v-.5A4.743 4.743 0 01.25 5h-.5zM5 10.25A5.243 5.243 0 0010.25 5h-.5A4.743 4.743 0 015 9.75v.5zM10.25 5A5.243 5.243 0 005-.25v.5A4.743 4.743 0 019.75 5h.5zm-3.328-.36h-1.71v.5h1.71v-.5zm-1.46.25V2.955h-.5V4.89h.5zm0-1.934a.696.696 0 00-.695-.694v.5c.106 0 .194.088.194.194h.5zm-.695-.694a.696.696 0 00-.695.694h.5c0-.106.088-.194.195-.194v-.5zm-.695.694v2.156h.5V2.956h-.5zm0 2.156c0 .042.006.078.009.097l.002.019v-.005h.5a.456.456 0 00-.003-.056l-.005-.034a.158.158 0 01-.003-.021h-.5zm.024.032c-.026.08-.024.168-.024.19h.5v-.022l.001-.016v-.005l-.002.01-.475-.157zm-.024.19c0 .382.312.694.695.694v-.5a.196.196 0 01-.195-.194h-.5zm.695.694h2.155v-.5H4.767v.5zm2.155 0a.696.696 0 00.695-.694h-.5a.196.196 0 01-.195.194v.5zm.695-.694a.696.696 0 00-.695-.694v.5c.107 0 .195.088.195.194h.5z"/></defs></svg>