<svg width="14" height="14" fill="none" xmlns="http://www.w3.org/2000/svg"><path d="M7 2.192A4.814 4.814 0 0111.808 7 4.814 4.814 0 017 11.808 4.814 4.814 0 012.192 7 4.814 4.814 0 017 2.192zM7 .875A6.117 6.117 0 00.875 7 6.117 6.117 0 007 13.125 6.117 6.117 0 0013.125 7 6.117 6.117 0 007 .875zm2.307 5.867H7.38V4.547a.66.66 0 00-.658-.658.66.66 0 00-.659.658v2.587a.578.578 0 00.013.12c-.013.053-.013.11-.013.14V7.4a.66.66 0 00.659.659h2.586a.66.66 0 00.659-.659.66.66 0 00-.659-.658z" fill="#fff" stroke="#fff" stroke-width=".25"/></svg>