<svg width="19" height="20" xmlns="http://www.w3.org/2000/svg" xmlns:xlink="http://www.w3.org/1999/xlink"><use xlink:href="#path0_fill" transform="translate(0 .16)" fill="#869094"/><defs><path id="path0_fill" fill-rule="evenodd" d="M1.8 9.5c0-4.3 3.4-7.7 7.7-7.7 4.2 0 7.7 3.4 7.7 7.7 0 2.8-1.5 5.3-3.8 6.6.5-1.7.7-3.4.6-5.4.5.1.8.2 1.3.4-.6-1.4-1.2-2.8-2-4.1-.7 1.4-1.7 2.7-2.7 3.7l1.6-.1c-1.4 2.5-3.3 3.6-5.8 4-.6-2.7-.2-7.3 3-9.4l.3 1.5c.6-1 1.8-2.3 2.7-3.2-1.4-.4-3-.6-4.6-.3.2.2.6.5.8.7-3.5 1.5-5.5 3.9-6.7 6.8-.1-.4-.1-.8-.1-1.2zM9.5 19c5.2 0 9.5-4.3 9.5-9.5S14.7 0 9.5 0 0 4.3 0 9.5 4.3 19 9.5 19z"/></defs></svg>