<svg width="30" height="30" fill="none" xmlns="http://www.w3.org/2000/svg"><path d="M16.516 18.565h-3.094l-.147-11.851h3.4l-.159 11.85zM13.2 22.217c0-.514.148-.943.444-1.286.307-.354.756-.531 1.348-.531.592 0 1.04.177 1.348.531.307.343.46.772.46 1.286s-.153.943-.46 1.286c-.307.331-.756.497-1.348.497-.592 0-1.041-.166-1.348-.497-.296-.343-.444-.772-.444-1.286z" fill="#EC5858"/><path fill-rule="evenodd" clip-rule="evenodd" d="M15 27.6c6.959 0 12.6-5.641 12.6-12.6S21.959 2.4 15 2.4 2.4 8.041 2.4 15 8.041 27.6 15 27.6zm0 2.4c8.284 0 15-6.716 15-15 0-8.284-6.716-15-15-15C6.716 0 0 6.716 0 15c0 8.284 6.716 15 15 15z" fill="#EC5858"/></svg>